<svg version="1.1" viewBox="0.0 0.0 16.0 16.0" fill="none" stroke="none" stroke-linecap="square" stroke-miterlimit="10" xmlns:xlink="http://www.w3.org/1999/xlink" xmlns="http://www.w3.org/2000/svg"><clipPath id="p.0"><path d="m0 0l16.0 0l0 16.0l-16.0 0l0 -16.0z" clip-rule="nonzero"/></clipPath><g clip-path="url(#p.0)"><path fill="#000000" fill-opacity="0.0" d="m0 0l16.0 0l0 16.0l-16.0 0z" fill-rule="evenodd"/><path fill="#000000" d="m4.3102436 1.6898984c-0.13773537 0 -0.2562518 0.03661096 -0.35554934 0.109833c-0.097696066 0.071664095 -0.15615344 0.16903365 -0.17537236 0.29210913l0 0.08646417c-0.03042984 0.47827983 -0.09929752 1.076519 -0.20660305 1.794718c-0.09929776 0.60291314 -0.20099783 1.1629837 -0.30509996 1.6802113c-0.10250044 0.5172272 -0.2322278 1.1201406 -0.38918233 1.8087387l-0.2810762 1.1777835l-0.103301525 0.47438526l-0.22101736 -1.10534c-0.049649 -0.28821468 -0.132931 -0.7096305 -0.2498455 -1.2642484c-0.020820618 -0.16202307 -0.060860157 -0.36766768 -0.12011802 -0.6169343c-0.39238536 -1.7806964 -0.7118994 -2.9678278 -0.958542 -3.5613933c-0.097696185 -0.219666 -0.18658358 -0.37935233 -0.26666206 -0.47905874c-0.07847732 -0.101264596 -0.15695465 -0.15657055 -0.23543137 -0.165918l-0.3987919 0.22901356c-0.019218888 0.8225789 -0.028828332 1.4402924 -0.028828332 1.8531394l0.028828332 2.785552l0.02882833 2.7691936c0 0.2586136 -0.014414165 0.64653397 -0.0432425 1.1637621l-0.02882833 1.177784c0 0.28665543 0.04644545 0.50476456 0.13933693 0.65432453c0.09449266 0.14800167 0.2642597 0.22200203 0.50930053 0.22200203c0.14734459 -0.1635809 0.22101718 -0.34585667 0.22101718 -0.5468273l-0.028828323 -1.9676466l-0.028828323 -0.97447586c-0.049649 -1.4550929 -0.0744732 -2.4412527 -0.0744732 -2.9584804l0.028828323 -1.7222748l0.44443685 1.607768c0.22582185 0.83192635 0.38998306 1.5329881 0.49248397 2.1031852c0.104102015 0.5686388 0.15615344 1.1022253 0.15615344 1.6007576c0 0.89891624 0.17697418 1.3483753 0.5309218 1.3483753c0.20660305 0 0.35955358 -0.11450672 0.45885086 -0.34352016c0.07847738 -0.21966648 0.12732506 -0.434659 0.14654398 -0.64497757l0.043242455 -0.27341366l0 -0.08646393c0.0896883 -0.5546179 0.24263859 -1.2626905 0.4588511 -2.124217c0.21621227 -0.83348465 0.36836195 -1.4800196 0.45644855 -1.9396043l0 0.733778c0 1.1185832 0.010410309 2.1234374 0.031230688 3.014565c0 0.42063713 0.004804611 0.7220936 0.014414072 0.9043703l0.01441431 2.124216c0 0.18227673 0.02962923 0.32093143 0.088887215 0.41596317c0.059257984 0.09659195 0.13773537 0.14488697 0.2354312 0.14488697c0.14734507 0 0.28027582 -0.08646488 0.39879227 -0.2593937c0.118516445 -0.1713705 0.17777443 -0.36766815 0.17777443 -0.588891c0 -0.74624157 -0.010410309 -1.3631763 -0.03123045 -1.8508034c-0.019218922 -1.071845 -0.053652763 -2.167838 -0.103301525 -3.2879791c-0.088086605 -2.2885766 -0.13213015 -4.0069566 -0.13213015 -5.15514c0 -0.08568525 -0.03443384 -0.16669679 -0.103301525 -0.24303472c-0.06886721 -0.07789588 -0.14734459 -0.1168437 -0.2354312 -0.1168437z" fill-rule="evenodd"/><path fill="#000000" d="m8.812821 2.5662255c0.2450409 0 0.4220152 0.024147749 0.53092194 0.07244301c0.02882862 0.08568525 0.043242455 0.20564485 0.043242455 0.3598783l0.17777443 3.3020008l0 1.4208183l0.103302 2.283124c0 0.12463379 0.007206917 0.2632885 0.02162075 0.41596317c0.014414787 0.15267658 0.021621704 0.26250935 0.021621704 0.32949924c0.020820618 0.32560444 0.031230927 0.55539703 0.031230927 0.68937683c0 0.09659195 -0.010410309 0.25004578 -0.031230927 0.46036434l-1.0474291 0.07244301c-0.27547073 0.009346962 -0.6294193 0.032715797 -1.0618439 0.07010651c0.07847738 -0.2679615 0.1641612 -0.6551027 0.25705242 -1.1614256c0.09449291 -0.50788116 0.15615368 -0.99628735 0.1849823 -1.4652195c0.06886768 -1.0048552 0.117715836 -2.1584911 0.1465435 -3.4609075l0 -1.0913196l0 -2.252745c0.19699383 -0.029600143 0.40439796 -0.044400454 0.62221146 -0.044400454zm-0.01681614 -0.5748706c-0.097696304 0 -0.38277626 0.024147749 -0.8552408 0.07244301c-0.18738413 0.018695116 -0.3251195 0.09269595 -0.4132061 0.22200298c-0.08808613 0.12930703 -0.12251997 0.28977203 -0.103301525 0.48139572c0.019218922 0.2212236 0.02882862 0.7384515 0.02882862 1.551683c0.009609222 0.20097113 0.01441431 0.5024276 0.01441431 0.90436983c0 0.14332771 0.010409832 0.36844635 0.03123045 0.6753559c0.019218922 0.439332 0.028828144 0.7742834 0.028828144 1.0048552c0 0.66990376 -0.06886768 1.63659 -0.20660305 2.9000587c-0.019218445 0.2383604 -0.058457375 0.51333237 -0.11771536 0.8249159c-0.05925846 0.31158352 -0.12332106 0.57720757 -0.19218874 0.7968731c-0.12812614 0.45958424 -0.4132061 0.7033987 -0.8552408 0.7314415c-0.15855551 0.010904312 -0.28187704 0.06153679 -0.36996365 0.15189648c-0.088086605 0.090358734 -0.12732506 0.17370701 -0.11771536 0.25004482l0.014413834 0.38792133c0 0.35520458 0.009609699 0.5608492 0.02882862 0.6169338c0.089687824 0.19162369 0.17377043 0.32093143 0.2522478 0.38792133c0.078476906 0.038947105 0.14253998 0.058421135 0.19218874 0.058421135c0.088086605 0 0.16416168 -0.038168907 0.22822428 -0.11450672c0.06406307 -0.07633686 0.10089922 -0.17682266 0.11050892 -0.30145645c0.009609222 -0.11528587 0.012011528 -0.2640667 0.007206917 -0.44634247c-0.004804611 -0.18071842 -0.007206917 -0.31937313 -0.007206917 -0.41596317c0.48207378 -0.028042793 0.7431302 -0.042063713 0.78316927 -0.042063713c0.4132061 -0.029600143 0.9785614 -0.08256912 1.6960669 -0.15890694l0.3555498 -0.042063713c0.37316608 -0.04829502 0.6630516 -0.07244301 0.86965466 -0.07244301c0.21621227 0 0.43242455 0.028821945 0.6486368 0.08646393c-0.05765629 0.74624157 -0.08648491 1.2011528 -0.08648491 1.3647337c0 0.11372757 0.041641235 0.21576977 0.12492275 0.3061304c0.08328247 0.09191704 0.1689663 0.1378746 0.25705338 0.1378746c0.12812519 0 0.21380997 -0.03349495 0.25705242 -0.10048485c0.044843674 -0.0669899 0.06726551 -0.1674757 0.06726551 -0.30145645c0 -0.1339817 0.0056056976 -0.22511959 0.016817093 -0.2734146c0.009609222 -0.16202354 0.028827667 -0.35832024 0.05765629 -0.588892c0.03042984 -0.22901344 0.060059547 -0.439332 0.088887215 -0.63095474c0.009610176 -0.028042793 0.014414787 -0.0662117 0.014414787 -0.11450672c0 -0.19162369 -0.096095085 -0.31158352 -0.28828335 -0.35987854c-0.190588 -0.04829502 -0.46846104 -0.07244301 -0.8336191 -0.07244301c-0.04964924 -0.2009716 -0.088887215 -0.5522814 -0.117715836 -1.0539293c-0.02882862 -0.5032072 -0.053652763 -0.99862385 -0.07447338 -1.4862509l-0.014413834 -0.38792133c-0.07847786 -2.1732907 -0.13213062 -3.7810588 -0.16095829 -4.823304c-0.011211395 -0.10593796 -0.016817093 -0.26874018 -0.016817093 -0.48840618l0.016817093 -0.99083376c0 -0.219666 -0.03763771 -0.35832047 -0.112911224 -0.41596317c-0.073672295 -0.0576427 -0.20339966 -0.095811844 -0.3891821 -0.11450672c-0.030430794 -0.010905504 -0.07287216 -0.016358137 -0.12732601 -0.016358137c-0.052851677 0 -0.11371136 -0.009347439 -0.18257904 -0.028042555c-0.15855598 -0.04829526 -0.34113503 -0.07244301 -0.5477381 -0.07244301z" fill-rule="evenodd"/><path fill="#000000" d="m13.843729 2.46574c0.1681652 0 0.3259201 0.066990376 0.4732647 0.20097113c0.14734459 0.13398075 0.27066612 0.32093048 0.36996365 0.5608492c0.21621323 0.5063224 0.36355782 1.0897615 0.44203472 1.7503173c0.097696304 0.7758417 0.15695477 1.4223766 0.17777443 1.9396043l0.014414787 1.320333c0 0.39259434 -0.009610176 0.7135248 -0.02882862 0.96279144c-0.040040016 0.57331276 -0.087285995 1.0874243 -0.14173889 1.5423355c-0.05445385 0.45491028 -0.14013863 0.84049416 -0.25705338 1.1567516c-0.13773441 0.35364723 -0.3050995 0.5304699 -0.5020933 0.5304699c-0.21621227 0 -0.42281532 -0.1674757 -0.61980915 -0.5024271c-0.30590057 -0.53592396 -0.53732777 -1.4402933 -0.69428253 -2.713109c-0.13773441 -0.9378643 -0.2066021 -1.7277274 -0.2066021 -2.3695889l0 -0.056084633c0 -0.23057175 0.004804611 -0.41284752 0.014413834 -0.54682827l0.014413834 -0.47438478c0.009609222 -0.4595852 0.04404354 -0.9425392 0.103302 -1.4488611c0.049648285 -0.4689324 0.14814568 -0.8996959 0.29549026 -1.2922902c0.11851597 -0.3738997 0.30029488 -0.5608494 0.54533577 -0.5608494zm-0.072071075 -0.75948346c-0.17777443 0 -0.35474873 0.038169026 -0.53092194 0.11450672c-0.2962904 0.1620233 -0.522913 0.43933213 -0.67986774 0.83192647c-0.15695477 0.4502375 -0.2554512 0.9051485 -0.29549026 1.3647335c-0.04964924 0.439332 -0.07447338 0.94643354 -0.07447338 1.5213041c0 0.35364628 0.004804611 0.6551027 0.014413834 0.90436935l0 0.7758417l0.016817093 0.75948334c0.048047066 0.8147893 0.12171936 1.5329881 0.22101688 2.1545959c0.13773537 0.9004755 0.34914303 1.6085482 0.634223 2.124217c0.15695477 0.2975626 0.34353828 0.53202915 0.55975056 0.7033987c0.21781445 0.17292881 0.45965195 0.25939274 0.72551346 0.25939274c0.27547073 0 0.52131176 -0.11450672 0.73752403 -0.34352016c0.21621323 -0.20097065 0.38277626 -0.44478512 0.499691 -0.73144054c0.11851692 -0.28821468 0.17777538 -0.56630325 0.17777538 -0.8342638c0 -0.3645525 0.029628754 -0.680809 0.088887215 -0.9487705l0 -0.056084633c0 -0.24926567 0.020019531 -0.5507221 0.060058594 -0.90436935c0.048047066 -0.45023727 0.072071075 -0.7563677 0.072071075 -0.9183912l0 -0.8202419c0 -0.6029129 -0.019218445 -1.2439947 -0.05765629 -1.9232459c-0.019219398 -0.61226034 -0.10810661 -1.2533422 -0.2666626 -1.9232457c-0.10730553 -0.5561757 -0.3283224 -1.0586033 -0.6630516 -1.5072827c-0.30590057 -0.401942 -0.7191067 -0.602913 -1.2396183 -0.602913z" fill-rule="evenodd"/></g></svg>